<svg xmlns="http://www.w3.org/2000/svg" viewBox="0 0 520.62 100"><defs><style>.a{fill:#293577;}.b{fill:#931a1e;}</style></defs><title>contact</title><path class="a" d="M71,56.35V71.74H59.82V56.35H39.69v-4.1L65.83,14H71V50.25h8.29v6.1ZM59.73,29.57,45.61,50.25H59.73Z" transform="translate(-39.69 -14)"/><path class="a" d="M106.53,71.74c-10.65,0-18.3-5.92-18.3-14.66,0-5.56,3.55-9.75,11.47-13.39-6.74-4.37-10.29-9.29-10.29-15,0-7.28,6.1-14.66,17.49-14.66,10,0,16.85,6,16.85,13.39,0,5.55-4,9.47-9.93,12,8.47,4.74,11.38,9.93,11.38,15.21C125.2,66.82,114.73,71.74,106.53,71.74ZM102.8,45.79c-2.73,2.27-4.83,6-4.83,11.29,0,6.46,3,11.29,9.38,11.29,4.28,0,8.66-2.73,8.66-8.74C116,53.89,111.36,50.43,102.8,45.79Zm3.82-28.33c-6.1,0-8.37,3.74-8.37,6.92,0,5,3.82,8.38,12.38,13.12,2.46-2.46,4.19-4.65,4.19-9.47C114.82,22.29,112.63,17.46,106.62,17.46Z" transform="translate(-39.69 -14)"/><path class="a" d="M152,71.74c-12.21,0-19.13-12-19.13-27.87,0-18,6.37-29.87,19.49-29.87,11.66,0,19,10.84,19,29C171.37,60.9,164.18,71.74,152,71.74Zm.18-54.19c-6.83,0-7.65,12.12-7.65,26.32,0,11.75.82,24.32,7.65,24.32s7.56-11.57,7.56-24.77C159.72,29.12,159,17.55,152.16,17.55Z" transform="translate(-39.69 -14)"/><path class="a" d="M179.37,47.29V38.45h30.51v8.84Z" transform="translate(-39.69 -14)"/><path class="a" d="M227.47,71.74c-10.84,0-14-4.92-14-7.56a4.84,4.84,0,0,1,4.56-5c4.09,0,5.73,3.37,7.92,5.92a6.63,6.63,0,0,0,5.1,2.55c4.19,0,8.2-3.46,8.2-12.75,0-8.83-4.83-12.11-9.11-12.11a12.5,12.5,0,0,0-3.92.82l-1.36-2.91c7.56-5.38,9.56-9.57,9.56-13.48,0-3.74-2.28-6.2-6-6.2-3.19,0-6.47,2.19-9.11,6.47l-2.91-1.64c3.91-8,9.47-11.84,16.94-11.84,7.1,0,11.56,4.28,11.56,9.47,0,4.65-2.82,8.29-8.19,12.3h.73c5.19,0,12.38,4.19,12.38,14.3C249.78,64.46,238.4,71.74,227.47,71.74Z" transform="translate(-39.69 -14)"/><path class="a" d="M278.83,71.74c-11.84,0-19.4-10.38-19.4-23,0-14.94,9.47-29.6,32.15-34.7l1.82,2.91c-11.2,4.1-18.76,11.57-21.13,22A19.3,19.3,0,0,1,282.65,36C289.39,36,298,40.59,298,53.44,298,64.18,290.67,71.74,278.83,71.74ZM279,40.32A15.7,15.7,0,0,0,271.45,43a100,100,0,0,0-.54,10.29c0,10.29,3,15.12,8.19,15.12,6.74,0,7.38-7.56,7.38-15.94C286.48,45.24,284.48,40.32,279,40.32Z" transform="translate(-39.69 -14)"/><path class="a" d="M318.35,71.74c-10.84,0-14-4.92-14-7.56a4.84,4.84,0,0,1,4.55-5c4.1,0,5.74,3.37,7.92,5.92a6.66,6.66,0,0,0,5.1,2.55c4.19,0,8.2-3.46,8.2-12.75,0-8.83-4.83-12.11-9.11-12.11a12.39,12.39,0,0,0-3.91.82l-1.37-2.91c7.56-5.38,9.56-9.57,9.56-13.48,0-3.74-2.27-6.2-6-6.2-3.19,0-6.46,2.19-9.11,6.47l-2.91-1.64c3.92-8,9.47-11.84,16.94-11.84,7.1,0,11.57,4.28,11.57,9.47,0,4.65-2.83,8.29-8.2,12.3h.73c5.19,0,12.38,4.19,12.38,14.3C340.66,64.46,329.28,71.74,318.35,71.74Z" transform="translate(-39.69 -14)"/><path class="a" d="M352,47.29V38.45h30.51v8.84Z" transform="translate(-39.69 -14)"/><path class="a" d="M392.48,70.56V67.37c7.1-.27,8.28-.27,8.28-4.1V25.75a39.54,39.54,0,0,1-9.92,3.92l-1.28-2.92C396.76,23.11,402.77,19,407,14h5.1V63.27c0,3.83.63,3.92,8.29,4.1v3.19Z" transform="translate(-39.69 -14)"/><path class="a" d="M450.76,71.74c-12.2,0-19.13-12-19.13-27.87,0-18,6.38-29.87,19.49-29.87,11.66,0,19,10.84,19,29C470.16,60.9,463,71.74,450.76,71.74Zm.18-54.19c-6.83,0-7.65,12.12-7.65,26.32,0,11.75.82,24.32,7.65,24.32s7.56-11.57,7.56-24.77C458.5,29.12,457.77,17.55,450.94,17.55Z" transform="translate(-39.69 -14)"/><path class="a" d="M496.2,71.74c-12.2,0-19.13-12-19.13-27.87,0-18,6.38-29.87,19.49-29.87,11.66,0,19,10.84,19,29C515.6,60.9,508.4,71.74,496.2,71.74Zm.18-54.19c-6.83,0-7.65,12.12-7.65,26.32,0,11.75.82,24.32,7.65,24.32s7.56-11.57,7.56-24.77C503.94,29.12,503.21,17.55,496.38,17.55Z" transform="translate(-39.69 -14)"/><path class="a" d="M541.64,71.74c-10.66,0-18.31-5.92-18.31-14.66,0-5.56,3.56-9.75,11.48-13.39-6.74-4.37-10.29-9.29-10.29-15,0-7.28,6.1-14.66,17.48-14.66,10,0,16.85,6,16.85,13.39,0,5.55-4,9.47-9.92,12,8.47,4.74,11.38,9.93,11.38,15.21C560.31,66.82,549.84,71.74,541.64,71.74Zm-3.73-25.95c-2.74,2.27-4.83,6-4.83,11.29,0,6.46,3,11.29,9.38,11.29,4.28,0,8.65-2.73,8.65-8.74C551.11,53.89,546.47,50.43,537.91,45.79Zm3.82-28.33c-6.1,0-8.38,3.74-8.38,6.92,0,5,3.83,8.38,12.39,13.12,2.46-2.46,4.19-4.65,4.19-9.47C549.93,22.29,547.74,17.46,541.73,17.46Z" transform="translate(-39.69 -14)"/><path class="b" d="M193.34,101.46l6.38,2a14.36,14.36,0,0,1-4.88,7.93,15.35,15.35,0,0,1-19.33-1.85c-2.79-3-4.18-7-4.18-12.12q0-8.14,4.2-12.64a14.41,14.41,0,0,1,11.05-4.51,13.55,13.55,0,0,1,9.72,3.54,12.83,12.83,0,0,1,3.33,6l-6.51,1.56a6.75,6.75,0,0,0-6.87-5.47,7.41,7.41,0,0,0-5.88,2.6c-1.51,1.74-2.26,4.54-2.26,8.43q0,6.18,2.22,8.8a7.22,7.22,0,0,0,5.78,2.63,6.62,6.62,0,0,0,4.52-1.67A9.68,9.68,0,0,0,193.34,101.46Z" transform="translate(-39.69 -14)"/><path class="b" d="M229.45,113.44h-6.94l-1.62-4.06h-10.5l-1.56,4.06h-6.78l10.63-25.3h5.85ZM215.5,95c-.07.41-.15.78-.23,1.1s-.17.64-.28,1-.22.69-.36,1.08-.33.88-.55,1.44l-1.67,4.65h6.39L217,99.42c-.22-.55-.4-1-.55-1.42s-.26-.75-.36-1.06-.2-.64-.28-1-.17-.66-.26-1Z" transform="translate(-39.69 -14)"/><path class="b" d="M232.82,113.44V88.14h6.41v20.12h12.83v5.18Z" transform="translate(-39.69 -14)"/><path class="b" d="M256.57,113.44V88.14H263v20.12H275.8v5.18Z" transform="translate(-39.69 -14)"/><path class="b" d="M289.79,97.22a8.1,8.1,0,0,1,.45-2.8,5.44,5.44,0,0,1,3.33-3.36,8.38,8.38,0,0,1,5.39,0,5.62,5.62,0,0,1,3.37,3.37,8.3,8.3,0,0,1,0,5.45,5.64,5.64,0,0,1-1.31,2,5.77,5.77,0,0,1-2,1.29,7.46,7.46,0,0,1-2.66.45,7.74,7.74,0,0,1-2.71-.45,5.57,5.57,0,0,1-3.36-3.33A7.53,7.53,0,0,1,289.79,97.22Zm3.28-.08a5.2,5.2,0,0,0,.25,1.72,3.34,3.34,0,0,0,.68,1.22,2.68,2.68,0,0,0,1,.72,3.35,3.35,0,0,0,1.28.24,3.3,3.3,0,0,0,1.27-.24,2.57,2.57,0,0,0,1-.72,3.49,3.49,0,0,0,.68-1.22,5.69,5.69,0,0,0,.24-1.75,5.87,5.87,0,0,0-.23-1.72,3.44,3.44,0,0,0-.65-1.2,2.63,2.63,0,0,0-1-.7,3.72,3.72,0,0,0-1.31-.23,3.9,3.9,0,0,0-1.3.22,2.74,2.74,0,0,0-1,.7,3.48,3.48,0,0,0-.67,1.22A5.63,5.63,0,0,0,293.07,97.14Z" transform="translate(-39.69 -14)"/><path class="b" d="M305.5,103.48V90.83h5.74c.72,0,1.33,0,1.84.08a6.56,6.56,0,0,1,1.3.27,2.94,2.94,0,0,1,.91.5,3.83,3.83,0,0,1,.68.75,3.31,3.31,0,0,1,.45,1,3.86,3.86,0,0,1,.15,1.08,4.75,4.75,0,0,1-.12,1,2.9,2.9,0,0,1-.46,1,3.57,3.57,0,0,1-.95.89,5.34,5.34,0,0,1-1.62.66v0a3.58,3.58,0,0,1,1.19.79,8.24,8.24,0,0,1,1.16,1.41l2.06,3.15H314l-1.81-2.76a11.08,11.08,0,0,0-1-1.36,4.28,4.28,0,0,0-.75-.67,1.35,1.35,0,0,0-.3-.14,1.59,1.59,0,0,0-.33-.08l-.4,0h-.71v5.06Zm4.81-7.55,1.26,0a6.52,6.52,0,0,0,.77-.06,1,1,0,0,0,.72-.42,1.41,1.41,0,0,0,.23-.79,1.14,1.14,0,0,0-.29-.8,1.23,1.23,0,0,0-.76-.38l-.64,0h-2.89v2.51Z" transform="translate(-39.69 -14)"/><path class="b" d="M341.23,113.44V86.36h-9.67V80.85h25.9v5.51h-9.65v27.08Z" transform="translate(-39.69 -14)"/><path class="b" d="M361.78,113.44V88.14H382v5.18H368.18v4.27H381v5.18H368.18v5.49h14.27v5.18Z" transform="translate(-39.69 -14)"/><path class="b" d="M384.54,113.44l9.07-13.16-8.24-12.14h7.27l4.75,7.43L402,88.14h7.22L401,100.44l9.07,13H402.6l-5.32-8-5.31,8Z" transform="translate(-39.69 -14)"/><path class="b" d="M419,113.44V93.32h-7.58V88.14H433v5.18h-7.56v20.12Z" transform="translate(-39.69 -14)"/></svg>