<svg xmlns="http://www.w3.org/2000/svg" viewBox="0 0 255.77 88.6"><defs><style>.a{fill:#a1a7f5;}.b{fill:none;stroke:#a1a7f5;stroke-miterlimit:10;stroke-width:3px;}.c{fill:#1b2e7a;}.d{fill:#fff;}.e{fill:#92011a;}.f{fill:#a1aae7;}</style></defs><title>logo</title><path class="a" d="M79.17,224.3V147.2l114.62,34Zm3-73.08V220l102.21-38.42Z" transform="translate(-51.61 -135.7)"/><path class="a" d="M293.88,216.06,180.57,180.15,293.45,135.7ZM189.54,179.84,290.85,212l-.38-71.85Z" transform="translate(-51.61 -135.7)"/><path class="a" d="M152.92,220.8l-13.13-72.08,86.52,27.11Zm-9.29-67.73L155.09,216l64-39.24Z" transform="translate(-51.61 -135.7)"/><path class="b" d="M200.33,192.27" transform="translate(-51.61 -135.7)"/><path class="c" d="M62.54,194v-1.63l.36-.11a1.72,1.72,0,0,0,.87-.45A1.27,1.27,0,0,0,64,191V180h7.7V191a1.27,1.27,0,0,0,.2.79,1.72,1.72,0,0,0,.87.45l.36.11V194Z" transform="translate(-51.61 -135.7)"/><path class="d" d="M71.17,180.54V191a1.69,1.69,0,0,0,.31,1.11,2.26,2.26,0,0,0,1.12.61v.76H63v-.76a2.21,2.21,0,0,0,1.12-.61,1.69,1.69,0,0,0,.31-1.11V180.54h6.7m1-1h-8.7V191a.84.84,0,0,1-.08.47s-.13.15-.63.29l-.72.21v2.51H73.6v-2.51l-.72-.21a1.34,1.34,0,0,1-.63-.29.84.84,0,0,1-.08-.47V179.54Z" transform="translate(-51.61 -135.7)"/><path class="e" d="M64,179.49V167H55a1,1,0,0,0-.7.2,1.88,1.88,0,0,0-.43.94l-.1.37H52.11v-9.34h1.6l.1.36a2.16,2.16,0,0,0,.46,1,1,1,0,0,0,.68.19H80.67a1.09,1.09,0,0,0,.72-.19,2,2,0,0,0,.43-.95l.1-.37h1.61v9.34H81.92l-.1-.37a1.88,1.88,0,0,0-.43-.94,1.09,1.09,0,0,0-.72-.2h-9v12.48Z" transform="translate(-51.61 -135.7)"/><path class="d" d="M83,159.68V168h-.72a2.48,2.48,0,0,0-.59-1.19,1.55,1.55,0,0,0-1-.32h-9.5V179h-6.7V166.51H55a1.51,1.51,0,0,0-1,.32,2.48,2.48,0,0,0-.59,1.19h-.72v-8.34h.72a2.71,2.71,0,0,0,.6,1.19,1.42,1.42,0,0,0,1,.32H80.67a1.5,1.5,0,0,0,1-.32,2.43,2.43,0,0,0,.59-1.19H83m1-1H81.54l-.2.75a1.74,1.74,0,0,1-.29.7.88.88,0,0,1-.38.06H55a.83.83,0,0,1-.34-.05,1.9,1.9,0,0,1-.32-.73l-.2-.73H51.61V169h2.5l.19-.75a1.72,1.72,0,0,1,.29-.69s.13-.07.36-.07h8.52V180h8.7V167.51h8.5c.25,0,.37.05.38.07h0a1.74,1.74,0,0,1,.29.7l.19.74H84V158.68Z" transform="translate(-51.61 -135.7)"/><path class="c" d="M105.54,194v-1.54l.42-.07c.81-.14.81-.51.81-.71a2.71,2.71,0,0,0-.32-1l-1.61-3.43H93.94l-1.58,3.43a2.71,2.71,0,0,0-.3,1c0,.13,0,.47.87.7l.37.1V194H83.9v-1.53l.4-.08a1.65,1.65,0,0,0,.88-.41,4.48,4.48,0,0,0,.79-1.36L90.81,180h6.35L96,182.59h6.77L101.69,180h7l4.82,10.17a6,6,0,0,0,1,1.64,1.76,1.76,0,0,0,1,.49l.41.08V194Z" transform="translate(-51.61 -135.7)"/><path class="d" d="M108.37,180.54l4.69,9.89a7.1,7.1,0,0,0,1.08,1.77,2.26,2.26,0,0,0,1.25.63v.62H106v-.62q1.23-.21,1.23-1.2a3.15,3.15,0,0,0-.37-1.2l-1.74-3.72H93.62l-1.71,3.72a3.11,3.11,0,0,0-.35,1.22c0,.57.41,1,1.24,1.18v.62H84.4v-.62a2.17,2.17,0,0,0,1.14-.54,5.51,5.51,0,0,0,.89-1.51l4.7-10.24h5.26l-1.13,2.55h8.3l-1.11-2.55h5.92m.63-1h-8.08l.61,1.41.5,1.14H96.8l.5-1.14.63-1.41H90.49l-.27.59-4.7,10.23a4.53,4.53,0,0,1-.69,1.22,1.28,1.28,0,0,1-.63.27l-.8.17v2.43H93.8v-2.39l-.74-.2c-.42-.1-.51-.22-.51-.22a2.92,2.92,0,0,1,.27-.8l1.44-3.13h10.26l1.47,3.14a2.45,2.45,0,0,1,.28.78.28.28,0,0,1,0,.08h0a.91.91,0,0,1-.39.14L105,192v2.46h11.35V192l-.81-.16a1.35,1.35,0,0,1-.73-.35A5.81,5.81,0,0,1,114,190l-4.7-9.88-.27-.58Z" transform="translate(-51.61 -135.7)"/><path class="e" d="M101.44,179.49l-2-4.58-2,4.58H91.07l4.24-9.24a3.49,3.49,0,0,0,.4-1.34c0-.25-.08-.57-.75-.81l-.33-.12v-1.47h10V168l-.35.11c-.74.22-.74.53-.74.66a2.49,2.49,0,0,0,.3,1.06l4.58,9.66Z" transform="translate(-51.61 -135.7)"/><path class="d" d="M104.13,167v.62c-.73.22-1.09.6-1.09,1.14a2.88,2.88,0,0,0,.35,1.28l4.24,8.94h-5.86l-2.33-5.32L97.08,179H91.85l3.92-8.53a4.1,4.1,0,0,0,.44-1.55c0-.6-.36-1-1.08-1.28V167h9m1-1h-11v2.32l.66.24c.42.15.42.27.42.34a3,3,0,0,1-.35,1.13l-3.92,8.53L90.29,180h7.44l.27-.6,1.44-3.24,1.41,3.24.26.6h8.1l-.68-1.43-4.24-8.94a2,2,0,0,1-.25-.85h0s.07-.09.38-.18l.71-.22V166Z" transform="translate(-51.61 -135.7)"/><path class="e" d="M120.81,179.49V168.16a1,1,0,0,0-.13-.58,1.31,1.31,0,0,0-.63-.33l-.35-.11v-1.48h8.4v1.49l-.37.1a1.08,1.08,0,0,0-.6.31,1,1,0,0,0-.14.6v11.33Z" transform="translate(-51.61 -135.7)"/><path class="d" d="M127.6,166.16v.61a1.62,1.62,0,0,0-.87.49,1.46,1.46,0,0,0-.24.9V179h-5.18V168.16a1.41,1.41,0,0,0-.24-.89,1.74,1.74,0,0,0-.87-.5v-.61h7.4m1-1h-9.4v2.35l.71.22a1.38,1.38,0,0,1,.38.17s0,.08,0,.26V180h7.18V168.16a.79.79,0,0,1,0-.3h0a1.33,1.33,0,0,1,.33-.13l.74-.2v-2.37Z" transform="translate(-51.61 -135.7)"/><path class="c" d="M141.94,194l-.09-.38a1.58,1.58,0,0,0-.32-.71.69.69,0,0,0-.47-.13H119.7v-1.48l.35-.11a1.31,1.31,0,0,0,.63-.33,1,1,0,0,0,.13-.59V180H127v7.39h14.07a.69.69,0,0,0,.47-.13,1.58,1.58,0,0,0,.32-.71l.09-.38h1.45V194Z" transform="translate(-51.61 -135.7)"/><path class="d" d="M126.49,180.54v7.39h14.57a1.14,1.14,0,0,0,.82-.27,2,2,0,0,0,.45-.95h.56v6.74h-.56a2,2,0,0,0-.45-.95,1.14,1.14,0,0,0-.82-.27H120.2v-.61a1.81,1.81,0,0,0,.87-.5,1.42,1.42,0,0,0,.24-.9v-9.68h5.18m1-1h-7.18v10.68a.71.71,0,0,1,0,.29h0a1.42,1.42,0,0,1-.36.15l-.71.22v2.35h22a1.84,1.84,0,0,1,.16.46l.19.75h2.34v-8.74h-2.34l-.19.75a2,2,0,0,1-.16.46H127.49v-7.39Z" transform="translate(-51.61 -135.7)"/><path class="c" d="M160.59,194c-4.39,0-7.94-1.31-10.55-3.88a13.64,13.64,0,0,1-3.2-5,15,15,0,0,1-.92-4.53l0-.53h6.5l0,.47a8.5,8.5,0,0,0,2.61,5.84,8.42,8.42,0,0,0,11.15,0,8.39,8.39,0,0,0,2-3.09,9.37,9.37,0,0,0,.59-2.75l0-.47h6.51l0,.53a14.32,14.32,0,0,1-2,6.7C170.75,191.7,166.46,194,160.59,194Z" transform="translate(-51.61 -135.7)"/><path class="d" d="M174.8,180.54a13.72,13.72,0,0,1-1.9,6.48q-3.75,6.43-12.31,6.43-6.41,0-10.2-3.74a13.09,13.09,0,0,1-3.08-4.78,14.41,14.41,0,0,1-.89-4.39h5.5a8.94,8.94,0,0,0,2.76,6.17,8.91,8.91,0,0,0,11.84,0,8.78,8.78,0,0,0,2.14-3.27,10,10,0,0,0,.63-2.9h5.51m1-1h-7.5l-.06.94a9.21,9.21,0,0,1-.56,2.61,7.87,7.87,0,0,1-1.9,2.9,7.18,7.18,0,0,1-5.22,2,7.26,7.26,0,0,1-5.24-2,7.92,7.92,0,0,1-2.45-5.51l-.06-.94h-7.49l0,1.06a15.4,15.4,0,0,0,1,4.68,14.2,14.2,0,0,0,3.32,5.15c2.7,2.67,6.37,4,10.9,4,6.06,0,10.49-2.33,13.18-6.93a14.9,14.9,0,0,0,2-6.93l0-1.05Z" transform="translate(-51.61 -135.7)"/><path class="e" d="M168.81,179.49l0-.47a8.35,8.35,0,0,0-2.59-5.83,8.15,8.15,0,0,0-5.62-2.12,7.74,7.74,0,0,0-5.54,2.11,8.5,8.5,0,0,0-2.61,5.84l0,.47h-6.51l0-.53a14.72,14.72,0,0,1,1.94-6.72c2.52-4.34,6.79-6.58,12.7-6.66,4.44,0,8,1.31,10.62,3.88a13.85,13.85,0,0,1,4.11,9.5l0,.53Z" transform="translate(-51.61 -135.7)"/><path class="d" d="M160.56,166.08q6.47,0,10.26,3.74a13.28,13.28,0,0,1,4,9.17h-5.5a8.83,8.83,0,0,0-2.76-6.17,8.55,8.55,0,0,0-5.94-2.25,8.21,8.21,0,0,0-5.9,2.25,8.94,8.94,0,0,0-2.76,6.17h-5.51a14.06,14.06,0,0,1,1.88-6.5q3.65-6.3,12.27-6.41m0-1h0c-6.1.08-10.51,2.41-13.12,6.91a15.28,15.28,0,0,0-2,6.95l0,1.05h7.5l.06-.94a7.92,7.92,0,0,1,2.45-5.51,7.22,7.22,0,0,1,5.21-2,7.5,7.5,0,0,1,5.26,2,7.77,7.77,0,0,1,2.44,5.5l.07.94h7.49l-.06-1.06a14.33,14.33,0,0,0-4.26-9.83c-2.71-2.67-6.4-4-11-4Z" transform="translate(-51.61 -135.7)"/><path class="e" d="M187.93,179.49l-2.64-2.87v2.87h-6V169a.93.93,0,0,0-.14-.57,1.41,1.41,0,0,0-.68-.34l-.36-.11v-1.49h9.56V168l-.37.1c-.43.12-.43.29-.43.41a1.23,1.23,0,0,0,.39.69l9.41,10.28Z" transform="translate(-51.61 -135.7)"/><path class="d" d="M187.13,167v.62c-.53.14-.79.44-.79.89a1.63,1.63,0,0,0,.51,1l8.64,9.44h-7.34l-3.36-3.65V179h-5V169a1.39,1.39,0,0,0-.25-.89,2,2,0,0,0-.93-.5V167h8.56m1-1H177.57v2.37l.72.21a1.21,1.21,0,0,1,.44.19,1,1,0,0,1,0,.24v11h7V177.9l1.62,1.76.3.33h10l-1.53-1.68-8.64-9.44a1.42,1.42,0,0,1-.21-.27h0l.74-.19V166Z" transform="translate(-51.61 -135.7)"/><path class="e" d="M200.23,179.49V169a.93.93,0,0,0-.14-.57,1.35,1.35,0,0,0-.68-.34l-.36-.11v-1.49h8.4V168l-.36.11a1.41,1.41,0,0,0-.68.34.93.93,0,0,0-.14.57v10.47Z" transform="translate(-51.61 -135.7)"/><path class="d" d="M207,167v.62a1.92,1.92,0,0,0-.92.5,1.33,1.33,0,0,0-.26.89v10h-5V169a1.39,1.39,0,0,0-.25-.89,2,2,0,0,0-.93-.5V167H207m1-1h-9.4v2.37l.72.21a1.21,1.21,0,0,1,.44.19,1,1,0,0,1,0,.24v11h7V169a1.09,1.09,0,0,1,0-.26h0a2,2,0,0,1,.43-.17l.72-.21V166Z" transform="translate(-51.61 -135.7)"/><path class="c" d="M198.52,194v-1.52l.39-.09c.38-.08.38-.23.38-.34s-.06-.26-.76-1L188.44,180h8.7l3.09,3.39V180h6v11.38a1,1,0,0,0,.14.59,1.41,1.41,0,0,0,.68.34l.36.11V194Z" transform="translate(-51.61 -135.7)"/><path class="d" d="M205.77,180.54v10.88a1.35,1.35,0,0,0,.26.91,1.92,1.92,0,0,0,.92.5v.62H199v-.62c.52-.12.77-.39.77-.83,0-.26-.3-.71-.9-1.36l-9.31-10.1h7.34l3.81,4.17v-4.17h5m1-1h-7v2.6l-2.07-2.27-.3-.33H187.3l1.55,1.68,9.31,10.1c.23.25.38.44.48.57L198,192v2.42H208v-2.37l-.72-.21a1.21,1.21,0,0,1-.44-.19s0-.08,0-.26V179.54Z" transform="translate(-51.61 -135.7)"/><path class="c" d="M178.07,194v-1.49l.36-.11a1.41,1.41,0,0,0,.68-.34,1,1,0,0,0,.14-.59V180h6v11.38a.92.92,0,0,0,.14.59,1.41,1.41,0,0,0,.68.34l.36.11V194Z" transform="translate(-51.61 -135.7)"/><path class="d" d="M184.79,180.54v10.88a1.41,1.41,0,0,0,.25.91,2,2,0,0,0,.93.5v.62h-7.4v-.62a2,2,0,0,0,.93-.5,1.41,1.41,0,0,0,.25-.91V180.54h5m1-1h-7v11.88a1.28,1.28,0,0,1,0,.28h0a2,2,0,0,1-.43.17l-.72.21v2.37H187v-2.37l-.72-.21a.36.36,0,0,1-.46-.45V179.54Z" transform="translate(-51.61 -135.7)"/><path class="c" d="M246.36,194v-1.67l.41-.07c.95-.16,1.08-.57,1.08-1a3.44,3.44,0,0,0-.41-1.24l-2-4.19H232.18L230.25,190a3.18,3.18,0,0,0-.38,1.26c0,.18,0,.64,1.12.94l.38.1V194H220.23V192.3l.39-.09a2.09,2.09,0,0,0,1.12-.52,5.62,5.62,0,0,0,1-1.66l4.59-10h7.49l-.19.42h8.49l-.18-.42h8.33l4.54,9.55a7.81,7.81,0,0,0,1.21,2,2.35,2.35,0,0,0,1.24.61l.41.08V194Z" transform="translate(-51.61 -135.7)"/><path class="d" d="M250.93,180.54l4.41,9.27a8.64,8.64,0,0,0,1.3,2.14,2.81,2.81,0,0,0,1.51.75v.75H246.86v-.75c1-.17,1.49-.65,1.49-1.44a3.84,3.84,0,0,0-.45-1.45l-2.11-4.48H231.86l-2.07,4.48a3.88,3.88,0,0,0-.42,1.47c0,.68.5,1.16,1.5,1.42v.75H220.73v-.75a2.7,2.7,0,0,0,1.37-.65,6.49,6.49,0,0,0,1.07-1.82l4.46-9.69H234l-.19.42h10l-.18-.42h7.25m.63-1h-9.41l.18.42h-7l.19-.42H227l-.26.59-4.46,9.68a5.58,5.58,0,0,1-.88,1.53,1.72,1.72,0,0,1-.87.38l-.79.17v2.56h12.14v-2.52l-.75-.19c-.22-.06-.75-.23-.75-.46a2.8,2.8,0,0,1,.33-1.05l1.8-3.9h12.66l1.83,3.9a3,3,0,0,1,.36,1c0,.16,0,.34-.66.46l-.83.14v2.59h13.29v-2.57l-.81-.16a1.75,1.75,0,0,1-1-.48,6.69,6.69,0,0,1-1.12-1.86l-4.41-9.26-.27-.58Z" transform="translate(-51.61 -135.7)"/><path class="e" d="M242.67,179.49l-3.78-8.64-3.84,8.64h-7.48l6.43-14a4.32,4.32,0,0,0,.49-1.65c0-.31-.1-.76-1-1.07l-.33-.12v-1.6h11.87v1.62l-.36.1c-1,.29-1,.74-1,.9a3.08,3.08,0,0,0,.38,1.32L251,179.49Z" transform="translate(-51.61 -135.7)"/><path class="d" d="M244.56,161.59v.75c-.89.26-1.33.72-1.33,1.37a3.47,3.47,0,0,0,.43,1.54L250.19,179H243l-4.11-9.38L234.72,179h-6.37l6.1-13.25a4.76,4.76,0,0,0,.54-1.86c0-.72-.44-1.23-1.3-1.54v-.75h10.87m1-1H232.69V163l.66.24c.64.23.64.47.64.6a3.77,3.77,0,0,1-.45,1.44l-6.1,13.25-.65,1.42h8.58l.26-.6,3.26-7.3,3.19,7.3.27.6h9.42l-.68-1.43-6.53-13.74a2.64,2.64,0,0,1-.33-1.11c0-.15.21-.29.61-.42l.72-.21v-2.49Z" transform="translate(-51.61 -135.7)"/><path class="c" d="M262,194v-1.5l.37-.1a1.6,1.6,0,0,0,.77-.36.88.88,0,0,0,.16-.57V180h7v11.38a.84.84,0,0,0,.16.58,1.49,1.49,0,0,0,.75.35l.39.09V194Z" transform="translate(-51.61 -135.7)"/><path class="d" d="M269.84,180.54v10.88a1.35,1.35,0,0,0,.29.92,2.07,2.07,0,0,0,1,.49v.62h-8.63v-.62a2.15,2.15,0,0,0,1-.5,1.31,1.31,0,0,0,.29-.91V180.54h6m1-1h-8v11.88a.57.57,0,0,1,0,.25h0a1.82,1.82,0,0,1-.52.19l-.74.2v2.39h10.63v-2.4l-.77-.19a1.3,1.3,0,0,1-.5-.2.92.92,0,0,1,0-.24V179.54Z" transform="translate(-51.61 -135.7)"/><path class="e" d="M263.31,179.49V169a.82.82,0,0,0-.16-.55,1.64,1.64,0,0,0-.77-.36L262,168v-1.5h9.63V168l-.39.1a1.37,1.37,0,0,0-.75.34.78.78,0,0,0-.16.56v10.47Z" transform="translate(-51.61 -135.7)"/><path class="d" d="M271.14,167v.62a2,2,0,0,0-1,.49,1.33,1.33,0,0,0-.28.9v10h-6V169a1.29,1.29,0,0,0-.29-.89,2.15,2.15,0,0,0-1-.5V167h8.63m1-1H261.51v2.39l.74.2a1.46,1.46,0,0,1,.54.21s0,.06,0,.21v11h8V169a.75.75,0,0,1,0-.24,1.85,1.85,0,0,1,.5-.18l.77-.18V166Z" transform="translate(-51.61 -135.7)"/><path class="c" d="M297.37,190.45a4.93,4.93,0,0,1,.86,1.68c0,.37-.31.6-.93.7v.62h9.09v-.62a2.33,2.33,0,0,1-1.47-.61,16.22,16.22,0,0,1-1.89-2.47l-4.88-7.3a9,9,0,0,0,4.52-1.91h-22.6v10.9a1.39,1.39,0,0,1-.26.89,1.92,1.92,0,0,1-.92.5v.62h7.85v-.62a1.85,1.85,0,0,1-.92-.49,1.44,1.44,0,0,1-.26-.9v-8.78h6.71Z" transform="translate(-51.61 -135.7)"/><path class="d" d="M306.45,191.79a1.31,1.31,0,0,1-.87-.35,14,14,0,0,1-1.73-2.28l-4-6a10.45,10.45,0,0,0,3.47-1.79,7,7,0,0,0,1.28-1.32l-1.91-.52h-23.6v11.93a.54.54,0,0,1,0,.22h0a2,2,0,0,1-.42.17l-.73.21v2.45h9.85V192l-.75-.21a.93.93,0,0,1-.41-.17.75.75,0,0,1,0-.21V183.7h5.18l4.8,7.33c.23.35.38.61.49.79l-.73.12v2.55h11.09v-2.63Zm-20.89-9.13v8.78a1.44,1.44,0,0,0,.26.9,1.85,1.85,0,0,0,.92.49v.62h-7.85v-.62a1.92,1.92,0,0,0,.92-.5,1.39,1.39,0,0,0,.26-.89v-10.9h22.6a9,9,0,0,1-4.52,1.91l4.88,7.3a16.22,16.22,0,0,0,1.89,2.47,2.33,2.33,0,0,0,1.47.61v.62H297.3v-.62c.62-.1.93-.33.93-.7a4.93,4.93,0,0,0-.86-1.68l-5.1-7.79Z" transform="translate(-51.61 -135.7)"/><path class="e" d="M279.57,179.49V169a.91.91,0,0,0-.15-.59,1.35,1.35,0,0,0-.67-.34l-.36-.11v-1.49h16.24a24,24,0,0,1,4.66.36,8.18,8.18,0,0,1,3.12,1.3,6.49,6.49,0,0,1,2.35,3,9.83,9.83,0,0,1,.73,3.75,8.64,8.64,0,0,1-1,4.37l-.15.25ZM294,177.8a19.15,19.15,0,0,0,2.58-.11,3.64,3.64,0,0,0,1.24-.42,3.15,3.15,0,0,0,0-4.87,3.48,3.48,0,0,0-1.23-.43,21.5,21.5,0,0,0-2.59-.1h-8v5.93Z" transform="translate(-51.61 -135.7)"/><path class="d" d="M294.63,167a23.8,23.8,0,0,1,4.56.35,7.92,7.92,0,0,1,2.94,1.22,6.07,6.07,0,0,1,2.17,2.73,9.21,9.21,0,0,1,.68,3.56,8.08,8.08,0,0,1-1,4.12H280.07V169a1.41,1.41,0,0,0-.26-.91,1.92,1.92,0,0,0-.92-.5V167h15.74m-9.07,11.29H294a22.43,22.43,0,0,0,2.65-.11,4,4,0,0,0,1.42-.49,3.63,3.63,0,0,0,0-5.73,4,4,0,0,0-1.41-.5,22.79,22.79,0,0,0-2.66-.1h-8.48v6.93M294.63,166H277.89v2.37l.72.21a1.2,1.2,0,0,1,.43.19.82.82,0,0,1,0,.26v11h25.52l.29-.5a9.16,9.16,0,0,0,1.1-4.62,10.39,10.39,0,0,0-.75-3.94,7.17,7.17,0,0,0-2.53-3.17,8.86,8.86,0,0,0-3.31-1.38,24.11,24.11,0,0,0-4.76-.37Zm-8.07,6.36H294a22.22,22.22,0,0,1,2.52.09,3.14,3.14,0,0,1,1.05.37c.39.23.9.67.9,2s-.51,1.77-.89,2a3,3,0,0,1-1.08.37,19,19,0,0,1-2.5.1h-7.48v-4.93Z" transform="translate(-51.61 -135.7)"/><path class="f" d="M191.25,212.6V200.93a.66.66,0,0,0-.15-.47,1.22,1.22,0,0,0-.55-.26v-.32h4.64v.32a1,1,0,0,0-.55.26.66.66,0,0,0-.15.47V212.6a.68.68,0,0,0,.16.48,1,1,0,0,0,.54.25v.33h-4.64v-.33a1.13,1.13,0,0,0,.55-.26A.68.68,0,0,0,191.25,212.6Z" transform="translate(-51.61 -135.7)"/><path class="f" d="M200.63,204.22v8.38a.61.61,0,0,0,.17.47,1.25,1.25,0,0,0,.61.26v.33h-4.89v-.33a1.29,1.29,0,0,0,.61-.26.64.64,0,0,0,.17-.47V200.93a.63.63,0,0,0-.17-.47,1.4,1.4,0,0,0-.61-.26v-.32h5.66v.32c-.35.07-.53.23-.53.46a.83.83,0,0,0,.34.54l9.19,7.9v-8.17a.63.63,0,0,0-.17-.47,1.35,1.35,0,0,0-.61-.26v-.32h4.89v.32a1.4,1.4,0,0,0-.61.26.63.63,0,0,0-.17.47V212.6a.64.64,0,0,0,.17.47,1.29,1.29,0,0,0,.61.26v.33h-5.24v-.33c.34-.06.51-.2.51-.43s-.2-.37-.6-.71Z" transform="translate(-51.61 -135.7)"/><path class="f" d="M231.78,208.68l2.3,2.87-.31.18a1.08,1.08,0,0,0-.56-.26A4.55,4.55,0,0,0,232,212a19.93,19.93,0,0,1-3.51,1.35,14.69,14.69,0,0,1-3.4.35,12.14,12.14,0,0,1-6.44-1.55,7,7,0,0,1-2.33-2.23,6.25,6.25,0,0,1,.78-7.71q2.64-2.78,8-2.78a15,15,0,0,1,3.38.34,18.74,18.74,0,0,1,3.52,1.36,4.94,4.94,0,0,0,1.23.47,1.08,1.08,0,0,0,.56-.26l.31.18-2.3,2.88-.33-.18c0-.11,0-.2,0-.27a.72.72,0,0,0-.3-.55,5.08,5.08,0,0,0-1.08-.62,10.65,10.65,0,0,0-4.56-1,7.84,7.84,0,0,0-4.53,1.18,4.27,4.27,0,0,0,0,7.22,7.77,7.77,0,0,0,4.53,1.18,10.51,10.51,0,0,0,4.56-1,4.67,4.67,0,0,0,1.08-.62.72.72,0,0,0,.3-.55c0-.07,0-.16,0-.26Z" transform="translate(-51.61 -135.7)"/><path class="f" d="M235.05,210.34a1.82,1.82,0,0,1,1.27.49,1.57,1.57,0,0,1,.51,1.18,1.52,1.52,0,0,1-.52,1.16,1.86,1.86,0,0,1-2.52,0,1.56,1.56,0,0,1-.52-1.18,1.54,1.54,0,0,1,.51-1.16A1.86,1.86,0,0,1,235.05,210.34Z" transform="translate(-51.61 -135.7)"/></svg>