<svg id="39390c5b-8cf7-43db-a9b8-e63be680863e" data-name="Final Logo remake" xmlns="http://www.w3.org/2000/svg" viewBox="0 0 255.77 149.49"><defs><style>.\30 c9569a0-ea53-4a2d-b351-15514f94ca37{fill:#a1a7f5;}.eb151b6f-7422-4957-9984-6a147b45a2d6{fill:none;stroke:#a1a7f5;stroke-miterlimit:10;stroke-width:3px;}.\34 cff3063-6394-4fdc-9bf3-973edb3eef78{fill:#1b2e7a;}.\35 48be225-1621-464f-a7ad-4f81ec92a712{fill:#fff;}.ff0f14ce-b59e-4e55-b45a-179a1d0177a9{fill:#92011a;}.\36 3301e78-8029-446e-bd1b-8822a9172813{fill:#a1aae7;}</style></defs><title>talon_air</title><path class="0c9569a0-ea53-4a2d-b351-15514f94ca37" d="M79.17,193.85v-77.1l114.62,34Zm3-73.08v68.75L184.38,151.1Z" transform="translate(-51.61 -105.25)"/><path class="0c9569a0-ea53-4a2d-b351-15514f94ca37" d="M293.88,185.61,180.57,149.7l112.88-44.45ZM189.54,149.39l101.31,32.12-.38-71.86Z" transform="translate(-51.61 -105.25)"/><path class="0c9569a0-ea53-4a2d-b351-15514f94ca37" d="M152.92,190.36l-13.13-72.08,86.52,27.1Zm-9.29-67.73,11.46,62.88,64-39.24Z" transform="translate(-51.61 -105.25)"/><path class="eb151b6f-7422-4957-9984-6a147b45a2d6" d="M200.33,161.83" transform="translate(-51.61 -105.25)"/><path class="4cff3063-6394-4fdc-9bf3-973edb3eef78" d="M62.54,163.5v-1.63l.36-.1a1.7,1.7,0,0,0,.87-.46,1.25,1.25,0,0,0,.2-.79V149.6h7.7v10.92a1.25,1.25,0,0,0,.2.79,1.7,1.7,0,0,0,.87.46l.36.1v1.63Z" transform="translate(-51.61 -105.25)"/><path class="548be225-1621-464f-a7ad-4f81ec92a712" d="M71.17,150.1v10.42a1.69,1.69,0,0,0,.31,1.11,2.26,2.26,0,0,0,1.12.62V163H63v-.75a2.21,2.21,0,0,0,1.12-.62,1.69,1.69,0,0,0,.31-1.11V150.1h6.7m1-1h-8.7v11.42a.84.84,0,0,1-.08.47s-.13.15-.63.3l-.72.21V164H73.6v-2.5l-.72-.21a1.39,1.39,0,0,1-.63-.3.84.84,0,0,1-.08-.47V149.1Z" transform="translate(-51.61 -105.25)"/><path class="ff0f14ce-b59e-4e55-b45a-179a1d0177a9" d="M64,149V136.56H55a1,1,0,0,0-.7.2,1.94,1.94,0,0,0-.43.94l-.1.38H52.11v-9.35h1.6l.1.37a2.31,2.31,0,0,0,.46,1,1,1,0,0,0,.68.19H80.67a1.09,1.09,0,0,0,.72-.2,1.94,1.94,0,0,0,.43-.94l.1-.38h1.61v9.35H81.92l-.1-.38a1.94,1.94,0,0,0-.43-.94,1.07,1.07,0,0,0-.72-.2h-9V149Z" transform="translate(-51.61 -105.25)"/><path class="548be225-1621-464f-a7ad-4f81ec92a712" d="M83,129.23v8.35h-.72a2.38,2.38,0,0,0-.59-1.19,1.5,1.5,0,0,0-1-.33h-9.5v12.48h-6.7V136.06H55a1.47,1.47,0,0,0-1,.33,2.38,2.38,0,0,0-.59,1.19h-.72v-8.35h.72a2.71,2.71,0,0,0,.6,1.19,1.42,1.42,0,0,0,1,.33H80.67a1.5,1.5,0,0,0,1-.33,2.43,2.43,0,0,0,.59-1.19H83m1-1H81.54l-.2.75a1.74,1.74,0,0,1-.29.7.68.68,0,0,1-.38.07H55a.62.62,0,0,1-.34-.06,1.9,1.9,0,0,1-.32-.73l-.2-.73H51.61v10.35h2.5l.19-.75a1.74,1.74,0,0,1,.29-.7.64.64,0,0,1,.36-.07h8.52v12.48h8.7V137.06h8.5c.25,0,.37.05.38.07h0a1.74,1.74,0,0,1,.29.7l.19.75H84V128.23Z" transform="translate(-51.61 -105.25)"/><path class="4cff3063-6394-4fdc-9bf3-973edb3eef78" d="M105.54,163.5V162l.42-.07c.81-.14.81-.51.81-.71a2.71,2.71,0,0,0-.32-1l-1.61-3.43H93.94l-1.58,3.43a2.71,2.71,0,0,0-.3,1c0,.13,0,.47.87.7l.37.1v1.5H83.9V162l.4-.09a1.8,1.8,0,0,0,.89-.4,5.18,5.18,0,0,0,.78-1.36l4.84-10.53h6.35L96,152.14h6.77l-1.11-2.54h7l4.82,10.17a5.91,5.91,0,0,0,1,1.63,1.76,1.76,0,0,0,1,.49l.41.08v1.53Z" transform="translate(-51.61 -105.25)"/><path class="548be225-1621-464f-a7ad-4f81ec92a712" d="M108.37,150.1l4.69,9.88a6.73,6.73,0,0,0,1.08,1.77,2.26,2.26,0,0,0,1.25.63V163H106v-.62q1.23-.21,1.23-1.2a3.15,3.15,0,0,0-.37-1.2l-1.74-3.72H93.62L91.91,160a3.15,3.15,0,0,0-.35,1.22c0,.57.41,1,1.24,1.18V163H84.4v-.62a2.17,2.17,0,0,0,1.14-.54,5.51,5.51,0,0,0,.89-1.51l4.7-10.23h5.26l-1.13,2.54h8.3l-1.11-2.54h5.92m.63-1h-8.08l.61,1.4.5,1.14H96.8l.5-1.14.63-1.4H90.49l-.27.58-4.7,10.23a4.32,4.32,0,0,1-.69,1.22,1.19,1.19,0,0,1-.63.27l-.8.17V164H93.8v-2.39l-.74-.19c-.42-.11-.51-.23-.51-.23a2.82,2.82,0,0,1,.27-.79l1.44-3.14h10.26l1.47,3.15a2.56,2.56,0,0,1,.28.77.55.55,0,0,1,0,.09h0a.85.85,0,0,1-.39.13l-.83.14V164h11.35v-2.44l-.81-.16a1.35,1.35,0,0,1-.73-.34,6.22,6.22,0,0,1-.88-1.51l-4.7-9.88-.27-.57Z" transform="translate(-51.61 -105.25)"/><path class="ff0f14ce-b59e-4e55-b45a-179a1d0177a9" d="M101.44,149l-2-4.58-2,4.58H91.07l4.24-9.24a3.45,3.45,0,0,0,.4-1.34c0-.25-.08-.57-.75-.81l-.33-.12v-1.47h10v1.49l-.35.11c-.74.22-.74.53-.74.67a2.45,2.45,0,0,0,.3,1l4.58,9.66Z" transform="translate(-51.61 -105.25)"/><path class="548be225-1621-464f-a7ad-4f81ec92a712" d="M104.13,136.56v.62c-.73.22-1.09.6-1.09,1.15a2.84,2.84,0,0,0,.35,1.27l4.24,8.94h-5.86l-2.33-5.32-2.36,5.32H91.85L95.77,140a4.1,4.1,0,0,0,.44-1.55c0-.59-.36-1-1.08-1.28v-.62h9m1-1h-11v2.33l.66.23c.42.15.42.28.42.34a2.93,2.93,0,0,1-.35,1.13l-3.92,8.53-.65,1.42h7.44l.27-.6,1.44-3.24,1.41,3.24.26.6h8.1l-.68-1.43-4.24-8.94a2,2,0,0,1-.25-.84h0s.07-.1.38-.19l.71-.21v-2.37Z" transform="translate(-51.61 -105.25)"/><path class="ff0f14ce-b59e-4e55-b45a-179a1d0177a9" d="M120.81,149V137.72a1,1,0,0,0-.13-.59,1.31,1.31,0,0,0-.63-.33l-.35-.11v-1.48h8.4v1.5l-.37.1a1.08,1.08,0,0,0-.6.31.93.93,0,0,0-.14.6V149Z" transform="translate(-51.61 -105.25)"/><path class="548be225-1621-464f-a7ad-4f81ec92a712" d="M127.6,135.71v.61a1.62,1.62,0,0,0-.87.49,1.47,1.47,0,0,0-.24.91v10.82h-5.18V137.72a1.42,1.42,0,0,0-.24-.9,1.81,1.81,0,0,0-.87-.5v-.61h7.4m1-1h-9.4v2.35l.71.22a1.38,1.38,0,0,1,.38.17s0,.09,0,.27v11.82h7.18V137.72a.69.69,0,0,1,0-.3h0a1,1,0,0,1,.33-.13l.74-.2v-2.38Z" transform="translate(-51.61 -105.25)"/><path class="4cff3063-6394-4fdc-9bf3-973edb3eef78" d="M141.94,163.5l-.09-.37a1.58,1.58,0,0,0-.32-.72.69.69,0,0,0-.47-.13H119.7V160.8l.35-.11a1.22,1.22,0,0,0,.63-.33.93.93,0,0,0,.13-.58V149.6H127V157h14.07a.74.74,0,0,0,.47-.12,1.65,1.65,0,0,0,.32-.72l.09-.38h1.45v7.74Z" transform="translate(-51.61 -105.25)"/><path class="548be225-1621-464f-a7ad-4f81ec92a712" d="M126.49,150.1v7.38h14.57a1.14,1.14,0,0,0,.82-.26,2.14,2.14,0,0,0,.45-1h.56V163h-.56a2.15,2.15,0,0,0-.45-.95,1.14,1.14,0,0,0-.82-.27H120.2v-.61a1.74,1.74,0,0,0,.87-.5,1.41,1.41,0,0,0,.24-.89V150.1h5.18m1-1h-7.18v10.68a.69.69,0,0,1,0,.28h0a1.42,1.42,0,0,1-.36.15l-.71.22v2.35h22a1.84,1.84,0,0,1,.16.46l.19.75h2.34v-8.74h-2.34l-.19.76a1.87,1.87,0,0,1-.16.45H127.49V149.1Z" transform="translate(-51.61 -105.25)"/><path class="4cff3063-6394-4fdc-9bf3-973edb3eef78" d="M160.59,163.5c-4.39,0-7.94-1.3-10.55-3.88a13.52,13.52,0,0,1-3.2-5,15,15,0,0,1-.92-4.54l0-.52h6.5l0,.47A8.5,8.5,0,0,0,155,155.9a8.42,8.42,0,0,0,11.15,0,8.39,8.39,0,0,0,2-3.09,9.38,9.38,0,0,0,.59-2.74l0-.47h6.51l0,.52a14.29,14.29,0,0,1-2,6.7C170.75,161.26,166.46,163.5,160.59,163.5Z" transform="translate(-51.61 -105.25)"/><path class="548be225-1621-464f-a7ad-4f81ec92a712" d="M174.8,150.1a13.65,13.65,0,0,1-1.9,6.47Q169.15,163,160.59,163q-6.41,0-10.2-3.73a13.13,13.13,0,0,1-3.08-4.79,14.41,14.41,0,0,1-.89-4.38h5.5a9,9,0,0,0,2.76,6.17,8.94,8.94,0,0,0,11.84,0,8.9,8.9,0,0,0,2.14-3.28,9.9,9.9,0,0,0,.63-2.89h5.51m1-1h-7.5l-.06.93a9.07,9.07,0,0,1-.56,2.61,7.87,7.87,0,0,1-1.9,2.9,7.14,7.14,0,0,1-5.22,2,7.22,7.22,0,0,1-5.24-2,7.92,7.92,0,0,1-2.45-5.5l-.06-.94h-7.49l0,1.05a15.34,15.34,0,0,0,1,4.68,14.2,14.2,0,0,0,3.32,5.15c2.7,2.67,6.37,4,10.9,4,6.06,0,10.49-2.33,13.18-6.92a14.94,14.94,0,0,0,2-6.94l0-1Z" transform="translate(-51.61 -105.25)"/><path class="ff0f14ce-b59e-4e55-b45a-179a1d0177a9" d="M168.81,149l0-.47a8.37,8.37,0,0,0-2.59-5.83,8.1,8.1,0,0,0-5.62-2.11,7.78,7.78,0,0,0-5.54,2.1,8.52,8.52,0,0,0-2.61,5.84l0,.47h-6.51l0-.53a14.72,14.72,0,0,1,1.94-6.72c2.52-4.34,6.79-6.58,12.7-6.66,4.44,0,8,1.31,10.62,3.89a13.81,13.81,0,0,1,4.11,9.49l0,.53Z" transform="translate(-51.61 -105.25)"/><path class="548be225-1621-464f-a7ad-4f81ec92a712" d="M160.56,135.63q6.47,0,10.26,3.74a13.29,13.29,0,0,1,4,9.17h-5.5a8.83,8.83,0,0,0-2.76-6.17,8.5,8.5,0,0,0-5.94-2.24,8.24,8.24,0,0,0-5.9,2.24,8.94,8.94,0,0,0-2.76,6.17h-5.51a14.06,14.06,0,0,1,1.88-6.5q3.65-6.28,12.27-6.41m0-1h0c-6.1.08-10.51,2.41-13.12,6.91a15.32,15.32,0,0,0-2,7l0,1h7.5l.06-.94a7.92,7.92,0,0,1,2.45-5.5,7.18,7.18,0,0,1,5.21-2,7.5,7.5,0,0,1,5.26,2,7.77,7.77,0,0,1,2.44,5.51l.07.93h7.49l-.06-1a14.29,14.29,0,0,0-4.26-9.83c-2.71-2.67-6.4-4-11-4Z" transform="translate(-51.61 -105.25)"/><path class="ff0f14ce-b59e-4e55-b45a-179a1d0177a9" d="M187.93,149l-2.64-2.87V149h-6V138.58a.93.93,0,0,0-.14-.57,1.3,1.3,0,0,0-.68-.35l-.36-.1v-1.5h9.56v1.5l-.37.11c-.43.11-.43.29-.43.4a1.2,1.2,0,0,0,.39.69L196.63,149Z" transform="translate(-51.61 -105.25)"/><path class="548be225-1621-464f-a7ad-4f81ec92a712" d="M187.13,136.56v.62c-.53.14-.79.44-.79.89a1.61,1.61,0,0,0,.51,1l8.64,9.44h-7.34l-3.36-3.65v3.65h-5v-10a1.35,1.35,0,0,0-.25-.89,1.88,1.88,0,0,0-.93-.51v-.62h8.56m1-1H177.57v2.37l.72.21a1.21,1.21,0,0,1,.44.19,1.15,1.15,0,0,1,0,.25v11h7v-2.09l1.62,1.77.3.32h10l-1.53-1.68-8.64-9.44a1.42,1.42,0,0,1-.21-.27h0l.74-.2v-2.39Z" transform="translate(-51.61 -105.25)"/><path class="ff0f14ce-b59e-4e55-b45a-179a1d0177a9" d="M200.23,149V138.58a.92.92,0,0,0-.14-.57,1.25,1.25,0,0,0-.68-.35l-.36-.1v-1.5h8.4v1.5l-.36.1a1.3,1.3,0,0,0-.68.35.91.91,0,0,0-.14.57V149Z" transform="translate(-51.61 -105.25)"/><path class="548be225-1621-464f-a7ad-4f81ec92a712" d="M207,136.56v.62a1.84,1.84,0,0,0-.92.51,1.3,1.3,0,0,0-.26.89v10h-5v-10a1.35,1.35,0,0,0-.25-.89,1.88,1.88,0,0,0-.93-.51v-.62H207m1-1h-9.4v2.37l.72.21a1.21,1.21,0,0,1,.44.19,1.15,1.15,0,0,1,0,.25v11h7v-11a.9.9,0,0,1,0-.26h0a1.66,1.66,0,0,1,.43-.18l.72-.21v-2.37Z" transform="translate(-51.61 -105.25)"/><path class="4cff3063-6394-4fdc-9bf3-973edb3eef78" d="M198.52,163.5V162l.39-.08c.38-.09.38-.23.38-.35s-.06-.26-.76-1L188.44,149.6h8.7l3.09,3.38V149.6h6V161a1,1,0,0,0,.14.59,1.41,1.41,0,0,0,.68.34l.36.11v1.49Z" transform="translate(-51.61 -105.25)"/><path class="548be225-1621-464f-a7ad-4f81ec92a712" d="M205.77,150.1V161a1.35,1.35,0,0,0,.26.91,1.84,1.84,0,0,0,.92.5V163H199v-.62c.52-.11.77-.39.77-.83,0-.26-.3-.71-.9-1.36l-9.31-10.09h7.34l3.81,4.17V150.1h5m1-1h-7v2.59l-2.07-2.27-.3-.32H187.3l1.55,1.68,9.31,10.09c.23.26.38.44.48.57l-.62.14V164H208v-2.37l-.72-.21a1.65,1.65,0,0,1-.44-.18s0-.09,0-.27V149.1Z" transform="translate(-51.61 -105.25)"/><path class="4cff3063-6394-4fdc-9bf3-973edb3eef78" d="M178.07,163.5V162l.36-.11a1.41,1.41,0,0,0,.68-.34,1,1,0,0,0,.14-.59V149.6h6V161a.92.92,0,0,0,.14.59,1.41,1.41,0,0,0,.68.34l.36.11v1.49Z" transform="translate(-51.61 -105.25)"/><path class="548be225-1621-464f-a7ad-4f81ec92a712" d="M184.79,150.1V161a1.41,1.41,0,0,0,.25.91,1.87,1.87,0,0,0,.93.5V163h-7.4v-.62a1.87,1.87,0,0,0,.93-.5,1.41,1.41,0,0,0,.25-.91V150.1h5m1-1h-7V161a1.07,1.07,0,0,1,0,.28h0a2,2,0,0,1-.43.17l-.72.21V164H187v-2.37l-.72-.21a1.65,1.65,0,0,1-.44-.18,1.52,1.52,0,0,1,0-.27V149.1Z" transform="translate(-51.61 -105.25)"/><path class="4cff3063-6394-4fdc-9bf3-973edb3eef78" d="M246.36,163.5v-1.66l.41-.08c.95-.16,1.08-.57,1.08-.95a3.44,3.44,0,0,0-.41-1.24l-2-4.19H232.18l-1.93,4.19a3.22,3.22,0,0,0-.38,1.26c0,.18,0,.65,1.13.94l.37.1v1.63H220.23v-1.65l.39-.08a2.25,2.25,0,0,0,1.12-.52,5.74,5.74,0,0,0,1-1.67l4.59-10h7.49l-.19.42h8.49l-.18-.42h8.33l4.54,9.55a7.67,7.67,0,0,0,1.21,2,2.43,2.43,0,0,0,1.24.62l.41.08v1.65Z" transform="translate(-51.61 -105.25)"/><path class="548be225-1621-464f-a7ad-4f81ec92a712" d="M250.93,150.1l4.41,9.26a8.45,8.45,0,0,0,1.3,2.14,2.89,2.89,0,0,0,1.51.76V163H246.86v-.74c1-.17,1.49-.66,1.49-1.45a3.84,3.84,0,0,0-.45-1.45l-2.11-4.48H231.86l-2.07,4.48a3.88,3.88,0,0,0-.42,1.47c0,.69.5,1.16,1.5,1.43V163H220.73v-.74a2.79,2.79,0,0,0,1.37-.66,6.34,6.34,0,0,0,1.07-1.82l4.46-9.68H234l-.19.42h10l-.18-.42h7.25m.63-1h-9.41l.18.42h-7l.19-.42H227l-.26.58-4.46,9.68a5.58,5.58,0,0,1-.88,1.53,1.81,1.81,0,0,1-.87.39l-.79.16V164h12.14v-2.51l-.75-.2c-.22-.06-.75-.23-.75-.46a2.85,2.85,0,0,1,.33-1.05l1.8-3.9h12.66l1.83,3.91a2.89,2.89,0,0,1,.36,1c0,.16,0,.35-.66.46l-.83.14V164h13.29v-2.57l-.81-.15a1.89,1.89,0,0,1-1-.48,7,7,0,0,1-1.12-1.87l-4.41-9.26-.27-.57Z" transform="translate(-51.61 -105.25)"/><path class="ff0f14ce-b59e-4e55-b45a-179a1d0177a9" d="M242.67,149l-3.78-8.64L235.05,149h-7.48L234,135.09a4.39,4.39,0,0,0,.49-1.66c0-.31-.1-.76-1-1.07l-.33-.12v-1.6h11.87v1.62l-.36.11c-1,.29-1,.73-1,.9a3,3,0,0,0,.38,1.31L251,149Z" transform="translate(-51.61 -105.25)"/><path class="548be225-1621-464f-a7ad-4f81ec92a712" d="M244.56,131.14v.75c-.89.26-1.33.72-1.33,1.38a3.5,3.5,0,0,0,.43,1.54l6.53,13.73H243l-4.11-9.37-4.17,9.37h-6.37l6.1-13.24a4.8,4.8,0,0,0,.54-1.87c0-.72-.44-1.23-1.3-1.54v-.75h10.87m1-1H232.69v2.45l.66.24c.64.23.64.47.64.6a3.8,3.8,0,0,1-.45,1.45l-6.1,13.24-.65,1.42h8.58l.26-.59,3.26-7.31,3.19,7.3.27.6h9.42l-.68-1.43-6.53-13.73a2.64,2.64,0,0,1-.33-1.11c0-.16.21-.3.61-.42l.72-.22v-2.49Z" transform="translate(-51.61 -105.25)"/><path class="4cff3063-6394-4fdc-9bf3-973edb3eef78" d="M262,163.5V162l.37-.1a1.51,1.51,0,0,0,.77-.36.87.87,0,0,0,.16-.57V149.6h7V161a.82.82,0,0,0,.16.58,1.49,1.49,0,0,0,.75.35l.39.09v1.51Z" transform="translate(-51.61 -105.25)"/><path class="548be225-1621-464f-a7ad-4f81ec92a712" d="M269.84,150.1V161a1.33,1.33,0,0,0,.29.92,2,2,0,0,0,1,.49V163h-8.63v-.62a2.06,2.06,0,0,0,1-.5,1.31,1.31,0,0,0,.29-.91V150.1h6m1-1h-8V161a.49.49,0,0,1,0,.25h0a1.59,1.59,0,0,1-.52.2l-.74.19V164h10.63v-2.4l-.77-.19a1.3,1.3,0,0,1-.5-.2.83.83,0,0,1,0-.24V149.1Z" transform="translate(-51.61 -105.25)"/><path class="ff0f14ce-b59e-4e55-b45a-179a1d0177a9" d="M263.31,149V138.58a.83.83,0,0,0-.16-.56,1.58,1.58,0,0,0-.77-.35l-.37-.1v-1.51h9.63v1.52l-.39.09a1.37,1.37,0,0,0-.75.34.83.83,0,0,0-.16.57V149Z" transform="translate(-51.61 -105.25)"/><path class="548be225-1621-464f-a7ad-4f81ec92a712" d="M271.14,136.56v.62a1.94,1.94,0,0,0-1,.5,1.29,1.29,0,0,0-.28.9v10h-6v-10a1.25,1.25,0,0,0-.29-.89,2.06,2.06,0,0,0-1-.51v-.62h8.63m1-1H261.51V138l.74.2a1.71,1.71,0,0,1,.54.21s0,.07,0,.22v11h8v-11a.68.68,0,0,1,0-.24,1.61,1.61,0,0,1,.5-.19l.77-.18v-2.41Z" transform="translate(-51.61 -105.25)"/><path class="4cff3063-6394-4fdc-9bf3-973edb3eef78" d="M297.37,160a4.85,4.85,0,0,1,.86,1.69q0,.54-.93.69V163h9.09v-.62a2.33,2.33,0,0,1-1.47-.61A15.69,15.69,0,0,1,303,159.3l-4.88-7.3a9.07,9.07,0,0,0,4.52-1.9h-22.6V161a1.37,1.37,0,0,1-.26.89,1.84,1.84,0,0,1-.92.5V163h7.85v-.62a1.77,1.77,0,0,1-.92-.49,1.4,1.4,0,0,1-.26-.9v-8.78h6.71Z" transform="translate(-51.61 -105.25)"/><path class="548be225-1621-464f-a7ad-4f81ec92a712" d="M306.45,161.35a1.42,1.42,0,0,1-.87-.35,15,15,0,0,1-1.73-2.29l-4-6a10.27,10.27,0,0,0,3.47-1.79,7,7,0,0,0,1.28-1.32l-1.91-.52h-23.6V161a.61.61,0,0,1,0,.23h0a1.78,1.78,0,0,1-.42.16l-.73.22V164h9.85v-2.46l-.75-.2a1.34,1.34,0,0,1-.41-.17,1,1,0,0,1,0-.22v-7.74h5.18l4.8,7.34c.23.34.38.6.49.79l-.73.12V164h11.09v-2.63Zm-20.89-9.14V161a1.4,1.4,0,0,0,.26.9,1.77,1.77,0,0,0,.92.49V163h-7.85v-.62a1.84,1.84,0,0,0,.92-.5,1.37,1.37,0,0,0,.26-.89V150.1h22.6a9.07,9.07,0,0,1-4.52,1.9l4.88,7.3a15.69,15.69,0,0,0,1.89,2.47,2.33,2.33,0,0,0,1.47.61V163H297.3v-.62q.93-.15.93-.69a4.85,4.85,0,0,0-.86-1.69l-5.1-7.79Z" transform="translate(-51.61 -105.25)"/><path class="ff0f14ce-b59e-4e55-b45a-179a1d0177a9" d="M279.57,149V138.6a.89.89,0,0,0-.15-.59,1.24,1.24,0,0,0-.67-.35l-.36-.1v-1.5h16.24a24,24,0,0,1,4.66.36,8.41,8.41,0,0,1,3.12,1.3,6.6,6.6,0,0,1,2.35,2.95,9.84,9.84,0,0,1,.73,3.76,8.6,8.6,0,0,1-1,4.36l-.15.25ZM294,147.36a18.69,18.69,0,0,0,2.58-.12,3.44,3.44,0,0,0,1.24-.42,3.14,3.14,0,0,0,0-4.86,3.31,3.31,0,0,0-1.23-.44,23.63,23.63,0,0,0-2.59-.1h-8v5.94Z" transform="translate(-51.61 -105.25)"/><path class="548be225-1621-464f-a7ad-4f81ec92a712" d="M294.63,136.56a23.8,23.8,0,0,1,4.56.35,7.92,7.92,0,0,1,2.94,1.22,6.07,6.07,0,0,1,2.17,2.73,9.23,9.23,0,0,1,.68,3.57,8.07,8.07,0,0,1-1,4.11H280.07V138.6a1.39,1.39,0,0,0-.26-.91,1.84,1.84,0,0,0-.92-.51v-.62h15.74m-9.07,11.3H294a19.92,19.92,0,0,0,2.65-.12,4.18,4.18,0,0,0,1.42-.48,3.64,3.64,0,0,0,0-5.74,3.77,3.77,0,0,0-1.41-.49,22.16,22.16,0,0,0-2.66-.11h-8.48v6.94m9.07-12.3H277.89v2.37l.72.21a1.2,1.2,0,0,1,.43.19.86.86,0,0,1,0,.27v10.94h25.52l.29-.5a9.14,9.14,0,0,0,1.1-4.61,10.44,10.44,0,0,0-.75-4,7.17,7.17,0,0,0-2.53-3.17,8.86,8.86,0,0,0-3.31-1.38,24.11,24.11,0,0,0-4.76-.37Zm-8.07,6.36H294a18.88,18.88,0,0,1,2.52.1,2.76,2.76,0,0,1,1.05.37c.39.22.9.66.9,2s-.51,1.78-.89,2a3.2,3.2,0,0,1-1.08.36,18.1,18.1,0,0,1-2.5.11h-7.48v-4.94Z" transform="translate(-51.61 -105.25)"/><path class="63301e78-8029-446e-bd1b-8822a9172813" d="M191.25,182.15V170.48a.68.68,0,0,0-.15-.47,1.34,1.34,0,0,0-.55-.26v-.32h4.64v.32a1,1,0,0,0-.55.26.68.68,0,0,0-.15.47v11.67a.65.65,0,0,0,.16.48,1,1,0,0,0,.54.26v.32h-4.64v-.32a1.22,1.22,0,0,0,.55-.27A.65.65,0,0,0,191.25,182.15Z" transform="translate(-51.61 -105.25)"/><path class="63301e78-8029-446e-bd1b-8822a9172813" d="M200.63,173.77v8.38a.58.58,0,0,0,.17.47,1.34,1.34,0,0,0,.61.27v.32h-4.89v-.32a1.39,1.39,0,0,0,.61-.27.61.61,0,0,0,.17-.47V170.48a.64.64,0,0,0-.17-.47,1.53,1.53,0,0,0-.61-.26v-.32h5.66v.32c-.35.08-.53.23-.53.47a.79.79,0,0,0,.34.53l9.19,7.91v-8.18A.64.64,0,0,0,211,170a1.47,1.47,0,0,0-.61-.26v-.32h4.89v.32a1.53,1.53,0,0,0-.61.26.64.64,0,0,0-.17.47v11.67a.61.61,0,0,0,.17.47,1.39,1.39,0,0,0,.61.27v.32h-5.24v-.32c.34-.06.51-.21.51-.44s-.2-.37-.6-.7Z" transform="translate(-51.61 -105.25)"/><path class="63301e78-8029-446e-bd1b-8822a9172813" d="M231.78,178.23l2.3,2.87-.31.19a1,1,0,0,0-.56-.27,5,5,0,0,0-1.23.49,18.46,18.46,0,0,1-3.51,1.35,14.69,14.69,0,0,1-3.4.35,12.14,12.14,0,0,1-6.44-1.55,6.93,6.93,0,0,1-2.33-2.23,6,6,0,0,1-1-3.36,6.07,6.07,0,0,1,1.76-4.35q2.64-2.78,8-2.78a14.39,14.39,0,0,1,3.38.35,19.31,19.31,0,0,1,3.52,1.35,4.53,4.53,0,0,0,1.23.47,1,1,0,0,0,.56-.26l.31.18-2.3,2.88-.33-.18c0-.11,0-.2,0-.27a.72.72,0,0,0-.3-.55,5.08,5.08,0,0,0-1.08-.62,10.64,10.64,0,0,0-4.56-1,7.77,7.77,0,0,0-4.53,1.18,4.27,4.27,0,0,0,0,7.22,7.84,7.84,0,0,0,4.53,1.18,10.65,10.65,0,0,0,4.56-1,5.08,5.08,0,0,0,1.08-.62.75.75,0,0,0,.3-.55c0-.08,0-.17,0-.27Z" transform="translate(-51.61 -105.25)"/><path class="63301e78-8029-446e-bd1b-8822a9172813" d="M235.05,179.9a1.81,1.81,0,0,1,1.27.48,1.58,1.58,0,0,1,.51,1.18,1.52,1.52,0,0,1-.52,1.16,1.86,1.86,0,0,1-2.52,0,1.56,1.56,0,0,1-.52-1.18,1.52,1.52,0,0,1,.51-1.15A1.82,1.82,0,0,1,235.05,179.9Z" transform="translate(-51.61 -105.25)"/><path class="0c9569a0-ea53-4a2d-b351-15514f94ca37" d="M119.42,218.37a33.06,33.06,0,0,1-5,7.75l-.52.6.29.25,3,2.17q1.14.88,4.22,3.31c3,2.4,5,3.59,6,3.59q1.29,0,4.26-2.77l.88.66c-.61.63-1.84,1.77-3.67,3.41q-1.37,1.23-3.31,3.09L125,241l-.73-.63q-6.36-5.47-12.89-10.46l-.63-.44A50.19,50.19,0,0,1,97,237.49a39.58,39.58,0,0,1-14.45,2.94q-7.3,0-11.66-2.68c-2.9-1.79-4.35-4.18-4.35-7.19q0-7.09,8.55-10.75a32.29,32.29,0,0,1,7.46-2.09,113.19,113.19,0,0,1,11.93-.93c1.94-.08,3.21-.59,3.82-1.51q-8.73,0-12.59-1.47t-3.86-4.74q0-4.41,6.65-8a31,31,0,0,1,14.91-3.84,31.74,31.74,0,0,1,3.34.19,65.29,65.29,0,0,0-3.6,8.35l-1.14-.32a8.63,8.63,0,0,0,.7-3,1.9,1.9,0,0,0-.84-1.79,6.12,6.12,0,0,0-2.94-.51c-4.12,0-7.39.64-9.83,1.91s-3.65,3-3.65,5.12q0,5,7.82,6.52,4.92.95,22.7,1,12.38,0,16-1.8c2.72-1.32,4.07-3.3,4.07-5.92a5,5,0,0,0-.44-1.83c1.62.46,2.43,1.35,2.43,2.68q0,1.6-3.09,4.43a24.31,24.31,0,0,1-6.46,4.33A22.05,22.05,0,0,1,119.42,218.37Zm-3.67,0-1.84,0-8.81-.19L95,218q-12.23,0-17.63,2.23-6.65,2.75-6.65,8.26,0,4.26,4.28,6.81t11.41,2.55A33,33,0,0,0,99,235.38a30.47,30.47,0,0,0,10.4-6.9,33.07,33.07,0,0,0-8.12-4.95,20.52,20.52,0,0,0-7.86-2,8.55,8.55,0,0,0-6,2A7,7,0,0,0,85.19,229a14.82,14.82,0,0,0,.26,2.33A3.58,3.58,0,0,1,83.21,228q0-3.09,4.41-6a15.88,15.88,0,0,1,9-3q5.85,0,14.66,5.89l.73.5A21.22,21.22,0,0,0,115.75,218.37Z" transform="translate(-51.61 -105.25)"/><path class="4cff3063-6394-4fdc-9bf3-973edb3eef78" d="M65,210.5l-2.1,5.09h-2.7l6.87-16.17H70.2l6.9,16.17H74.31l-2.16-5.09Zm6.63-1.63-2-4.65c-.45-1.06-.75-2-1-3h-.06c-.3,1-.63,2-1,2.93l-2,4.68Z" transform="translate(-51.61 -105.25)"/><path class="4cff3063-6394-4fdc-9bf3-973edb3eef78" d="M82.68,199.42v16.17H80.07V199.42Z" transform="translate(-51.61 -105.25)"/><path class="4cff3063-6394-4fdc-9bf3-973edb3eef78" d="M87.24,199.63a34.73,34.73,0,0,1,5-.33c2.79,0,4.59.4,5.85,1.32a3.68,3.68,0,0,1,1.59,3.07c0,2.13-1.68,3.55-3.81,4.13v.07a4.26,4.26,0,0,1,3,3.26,21.78,21.78,0,0,0,1.56,4.44h-2.7a17.82,17.82,0,0,1-1.35-3.86c-.6-2.23-1.68-3.07-4-3.15H89.85v7H87.24ZM89.85,207h2.67c2.79,0,4.56-1.22,4.56-3.07,0-2.09-1.89-3-4.65-3a12.81,12.81,0,0,0-2.58.2Z" transform="translate(-51.61 -105.25)"/><path class="4cff3063-6394-4fdc-9bf3-973edb3eef78" d="M123.87,215.06a15.65,15.65,0,0,1-5.34.77c-5.7,0-10-2.88-10-8.18,0-5.07,4.29-8.5,10.56-8.5a13.14,13.14,0,0,1,4.8.72l-.63,1.71a11.4,11.4,0,0,0-4.08-.68c-4.74,0-7.89,2.43-7.89,6.68,0,4,2.85,6.5,7.77,6.5a12.69,12.69,0,0,0,4.26-.67Z" transform="translate(-51.61 -105.25)"/><path class="4cff3063-6394-4fdc-9bf3-973edb3eef78" d="M143.79,207.34c0,5.56-4.23,8.52-9.39,8.52-5.34,0-9.09-3.31-9.09-8.21,0-5.14,4-8.5,9.39-8.5S143.79,202.54,143.79,207.34Zm-15.69.26a6.26,6.26,0,0,0,6.45,6.55c4.14,0,6.48-3.05,6.48-6.72a6.27,6.27,0,0,0-6.45-6.57C130.26,200.86,128.1,204.05,128.1,207.6Z" transform="translate(-51.61 -105.25)"/><path class="4cff3063-6394-4fdc-9bf3-973edb3eef78" d="M147.18,215.59V199.42H150l6.48,8.18a44.09,44.09,0,0,1,3.63,5.26l.06,0a57.66,57.66,0,0,1-.3-6.65v-6.76h2.46v16.17h-2.64l-6.42-8.21a48.85,48.85,0,0,1-3.78-5.4l-.09,0c.15,2,.21,4,.21,6.67v6.91Z" transform="translate(-51.61 -105.25)"/><path class="4cff3063-6394-4fdc-9bf3-973edb3eef78" d="M166.92,199.63a47.08,47.08,0,0,1,5.55-.33c3.75,0,6.42.69,8.19,2a6.78,6.78,0,0,1,2.85,5.81,7.69,7.69,0,0,1-2.91,6.29c-1.89,1.51-5,2.33-8.94,2.33-1.86,0-3.42-.07-4.74-.19Zm2.61,14.31a21.71,21.71,0,0,0,2.64.12c5.58,0,8.61-2.5,8.61-6.87,0-3.81-2.67-6.24-8.19-6.24a18.34,18.34,0,0,0-3.06.22Z" transform="translate(-51.61 -105.25)"/><path class="4cff3063-6394-4fdc-9bf3-973edb3eef78" d="M189.51,199.42v16.17H186.9V199.42Z" transform="translate(-51.61 -105.25)"/><path class="4cff3063-6394-4fdc-9bf3-973edb3eef78" d="M197.91,201.19h-6.15v-1.77h15v1.77h-6.18v14.4h-2.64Z" transform="translate(-51.61 -105.25)"/><path class="4cff3063-6394-4fdc-9bf3-973edb3eef78" d="M211.59,199.42v16.17H209V199.42Z" transform="translate(-51.61 -105.25)"/><path class="4cff3063-6394-4fdc-9bf3-973edb3eef78" d="M233.43,207.34c0,5.56-4.23,8.52-9.39,8.52-5.34,0-9.09-3.31-9.09-8.21,0-5.14,4-8.5,9.39-8.5S233.43,202.54,233.43,207.34Zm-15.69.26a6.26,6.26,0,0,0,6.45,6.55c4.14,0,6.48-3.05,6.48-6.72a6.27,6.27,0,0,0-6.45-6.57C219.9,200.86,217.74,204.05,217.74,207.6Z" transform="translate(-51.61 -105.25)"/><path class="4cff3063-6394-4fdc-9bf3-973edb3eef78" d="M236.82,215.59V199.42h2.85l6.48,8.18a44.09,44.09,0,0,1,3.63,5.26l.06,0a57.66,57.66,0,0,1-.3-6.65v-6.76H252v16.17h-2.64l-6.42-8.21a48.85,48.85,0,0,1-3.78-5.4l-.09,0c.15,2,.21,4,.21,6.67v6.91Z" transform="translate(-51.61 -105.25)"/><path class="4cff3063-6394-4fdc-9bf3-973edb3eef78" d="M259.17,199.42v16.17h-2.61V199.42Z" transform="translate(-51.61 -105.25)"/><path class="4cff3063-6394-4fdc-9bf3-973edb3eef78" d="M263.73,215.59V199.42h2.85l6.48,8.18a44.09,44.09,0,0,1,3.63,5.26l.06,0a57.66,57.66,0,0,1-.3-6.65v-6.76h2.46v16.17h-2.64l-6.42-8.21a48.85,48.85,0,0,1-3.78-5.4l-.09,0c.15,2,.21,4,.21,6.67v6.91Z" transform="translate(-51.61 -105.25)"/><path class="4cff3063-6394-4fdc-9bf3-973edb3eef78" d="M298.86,214.87a22.87,22.87,0,0,1-6.21.89,12.06,12.06,0,0,1-7.56-2.13,7.51,7.51,0,0,1-2.82-6c0-4.82,4.17-8.35,11-8.35a15.44,15.44,0,0,1,5,.74l-.63,1.71a12.61,12.61,0,0,0-4.47-.7c-4.92,0-8.13,2.45-8.13,6.5s3.09,6.53,7.8,6.53a10.45,10.45,0,0,0,3.48-.43v-4.82H292.2V207.1h6.66Z" transform="translate(-51.61 -105.25)"/><path class="4cff3063-6394-4fdc-9bf3-973edb3eef78" d="M129.1,220.42v6.76h9.78v-6.76h2.64v16.17h-2.64V229H129.1v7.58h-2.6V220.42Z" transform="translate(-51.61 -105.25)"/><path class="4cff3063-6394-4fdc-9bf3-973edb3eef78" d="M156.52,229h-7.86v5.83h8.76v1.75H146.05V220.42H157v1.75h-8.31v5.11h7.86Z" transform="translate(-51.61 -105.25)"/><path class="4cff3063-6394-4fdc-9bf3-973edb3eef78" d="M164.08,231.5l-2.1,5.09h-2.7l6.87-16.17h3.15l6.9,16.17h-2.79l-2.16-5.09Zm6.63-1.63-2-4.65c-.45-1.06-.75-2-1-3h-.06c-.3,1-.63,2-1,2.93l-2,4.68Z" transform="translate(-51.61 -105.25)"/><path class="4cff3063-6394-4fdc-9bf3-973edb3eef78" d="M180.7,222.19h-6.15v-1.77h15v1.77h-6.18v14.4H180.7Z" transform="translate(-51.61 -105.25)"/><path class="4cff3063-6394-4fdc-9bf3-973edb3eef78" d="M194.38,220.42v16.17h-2.61V220.42Z" transform="translate(-51.61 -105.25)"/><path class="4cff3063-6394-4fdc-9bf3-973edb3eef78" d="M198.94,236.59V220.42h2.85l6.48,8.18a44.09,44.09,0,0,1,3.63,5.26l.06,0a57.66,57.66,0,0,1-.3-6.65v-6.76h2.46v16.17h-2.64l-6.42-8.21a48.85,48.85,0,0,1-3.78-5.4l-.09,0c.15,2,.21,4,.21,6.67v6.91Z" transform="translate(-51.61 -105.25)"/><path class="4cff3063-6394-4fdc-9bf3-973edb3eef78" d="M234.07,235.87a22.87,22.87,0,0,1-6.21.89,12.06,12.06,0,0,1-7.56-2.13,7.51,7.51,0,0,1-2.82-6c0-4.82,4.17-8.35,11-8.35a15.44,15.44,0,0,1,5,.74l-.63,1.71a12.61,12.61,0,0,0-4.47-.7c-4.92,0-8.13,2.45-8.13,6.5S223.33,235,228,235a10.45,10.45,0,0,0,3.48-.43v-4.82h-4.11V228.1h6.66Z" transform="translate(-51.61 -105.25)"/><path class="4cff3063-6394-4fdc-9bf3-973edb3eef78" d="M88.54,245.28a19.12,19.12,0,0,1,2.92-.2,5.69,5.69,0,0,1,3.41.77,2.15,2.15,0,0,1,.93,1.8,2.63,2.63,0,0,1-2.22,2.41v0a2.48,2.48,0,0,1,1.73,1.9,13.29,13.29,0,0,0,.91,2.59H94.65a9.79,9.79,0,0,1-.79-2.25,2.15,2.15,0,0,0-2.36-1.84H90.06v4.09H88.54Zm1.52,4.3h1.56c1.63,0,2.66-.72,2.66-1.79S93.18,246,91.57,246a8.44,8.44,0,0,0-1.51.11Z" transform="translate(-51.61 -105.25)"/><path class="4cff3063-6394-4fdc-9bf3-973edb3eef78" d="M98.83,251.43c0,1.66,1.36,2.35,2.9,2.35a6.71,6.71,0,0,0,2.35-.35l.26.88a8.26,8.26,0,0,1-2.82.42c-2.6,0-4.16-1.37-4.16-3.41a3.64,3.64,0,0,1,4-3.66,3.14,3.14,0,0,1,3.5,3.19,3.66,3.66,0,0,1,0,.58Zm4.51-.88a1.91,1.91,0,0,0-2.13-2,2.29,2.29,0,0,0-2.36,2Z" transform="translate(-51.61 -105.25)"/><path class="4cff3063-6394-4fdc-9bf3-973edb3eef78" d="M106.53,253.33a4.73,4.73,0,0,0,2,.49c1.12,0,1.64-.45,1.64-1s-.43-.91-1.57-1.24c-1.53-.44-2.24-1.11-2.24-1.92,0-1.09,1.1-2,2.92-2a5.11,5.11,0,0,1,2.08.42l-.38.9a3.88,3.88,0,0,0-1.73-.4c-.91,0-1.42.42-1.42.93s.51.81,1.61,1.15c1.47.44,2.22,1,2.22,2,0,1.19-1.15,2-3.17,2a5.86,5.86,0,0,1-2.38-.46Z" transform="translate(-51.61 -105.25)"/><path class="4cff3063-6394-4fdc-9bf3-973edb3eef78" d="M115.38,245.91c0,.42-.36.75-1,.75a.82.82,0,0,1-.92-.75c0-.44.4-.77,1-.77S115.38,245.47,115.38,245.91Zm-1.71,8.68v-6.78h1.54v6.78Z" transform="translate(-51.61 -105.25)"/><path class="4cff3063-6394-4fdc-9bf3-973edb3eef78" d="M125.08,244.65v8.19c0,.6,0,1.29.07,1.75h-1.38l-.07-1.17h0a3.32,3.32,0,0,1-2.89,1.33,3.42,3.42,0,0,1-3.62-3.45,3.58,3.58,0,0,1,3.8-3.64,3,3,0,0,1,2.55,1h0v-4Zm-1.54,5.92a1.79,1.79,0,0,0-.07-.51,2.2,2.2,0,0,0-2.22-1.43,2.43,2.43,0,0,0-2.54,2.61,2.35,2.35,0,0,0,2.5,2.51,2.26,2.26,0,0,0,2.26-1.47,1.79,1.79,0,0,0,.07-.53Z" transform="translate(-51.61 -105.25)"/><path class="4cff3063-6394-4fdc-9bf3-973edb3eef78" d="M128.49,251.43c0,1.66,1.37,2.35,2.91,2.35a6.69,6.69,0,0,0,2.34-.35l.26.88a8.23,8.23,0,0,1-2.81.42c-2.61,0-4.17-1.37-4.17-3.41a3.65,3.65,0,0,1,4-3.66,3.14,3.14,0,0,1,3.5,3.19,3.66,3.66,0,0,1-.05.58Zm4.52-.88a1.92,1.92,0,0,0-2.14-2,2.29,2.29,0,0,0-2.36,2Z" transform="translate(-51.61 -105.25)"/><path class="4cff3063-6394-4fdc-9bf3-973edb3eef78" d="M136.4,249.65c0-.7,0-1.28-.07-1.84h1.37l.08,1.12h0a3.31,3.31,0,0,1,2.8-1.27,2.75,2.75,0,0,1,3,2.89v4h-1.54v-3.91a1.79,1.79,0,0,0-2-2,2.17,2.17,0,0,0-2.06,1.26,1.5,1.5,0,0,0-.11.58v4.07H136.4Z" transform="translate(-51.61 -105.25)"/><path class="4cff3063-6394-4fdc-9bf3-973edb3eef78" d="M147.9,245.87v1.94h2.2v.94h-2.2v3.66c0,.84.3,1.32,1.15,1.32a4.38,4.38,0,0,0,.9-.09l.07.93a5,5,0,0,1-1.37.16,2.46,2.46,0,0,1-1.66-.51,2.18,2.18,0,0,1-.6-1.77v-3.7h-1.31v-.94h1.31v-1.62Z" transform="translate(-51.61 -105.25)"/><path class="4cff3063-6394-4fdc-9bf3-973edb3eef78" d="M153.55,245.91c0,.42-.37.75-1,.75a.83.83,0,0,1-.93-.75c0-.44.41-.77,1-.77S153.55,245.47,153.55,245.91Zm-1.71,8.68v-6.78h1.54v6.78Z" transform="translate(-51.61 -105.25)"/><path class="4cff3063-6394-4fdc-9bf3-973edb3eef78" d="M160.62,254.59l-.12-.85h-.05a3.51,3.51,0,0,1-2.6,1c-1.71,0-2.58-1-2.58-1.95,0-1.64,1.81-2.54,5.09-2.52v-.14c0-.56-.19-1.57-1.93-1.57a5.13,5.13,0,0,0-2.2.5l-.35-.81a6.32,6.32,0,0,1,2.78-.6c2.59,0,3.22,1.41,3.22,2.77V253a8,8,0,0,0,.14,1.62Zm-.23-3.46c-1.68,0-3.58.21-3.58,1.53,0,.8.66,1.18,1.45,1.18a2.13,2.13,0,0,0,2.05-1.14,1,1,0,0,0,.08-.39Z" transform="translate(-51.61 -105.25)"/><path class="4cff3063-6394-4fdc-9bf3-973edb3eef78" d="M164.37,244.65h1.54v9.94h-1.54Z" transform="translate(-51.61 -105.25)"/><path class="4cff3063-6394-4fdc-9bf3-973edb3eef78" d="M179.64,254.59c-.33-.26-.64-.53-1.1-.92a5.58,5.58,0,0,1-3.45,1.08c-2.29,0-3.62-1.24-3.62-2.65s1-2.17,2.31-2.76v0a3,3,0,0,1-1-2c0-1.15,1-2.32,3-2.32,1.47,0,2.61.78,2.61,2,0,1-.72,1.78-2.59,2.52v0c1,.92,2.12,2,2.87,2.63a6.12,6.12,0,0,0,1.14-2.76h1.4a6.5,6.5,0,0,1-1.7,3.49l1.94,1.66ZM177.79,253c-.7-.62-2-1.77-3.33-3a2.35,2.35,0,0,0-1.52,1.92c0,1.08,1,1.9,2.41,1.9A3.72,3.72,0,0,0,177.79,253Zm-3.59-5.76a2.43,2.43,0,0,0,.89,1.7c1.19-.55,2-1,2-1.85a1.23,1.23,0,0,0-1.36-1.22A1.36,1.36,0,0,0,174.2,247.21Z" transform="translate(-51.61 -105.25)"/><path class="4cff3063-6394-4fdc-9bf3-973edb3eef78" d="M194.8,254.28a9.08,9.08,0,0,1-3.12.45c-3.32,0-5.83-1.68-5.83-4.77s2.51-5,6.17-5a7.68,7.68,0,0,1,2.8.42l-.37,1a6.85,6.85,0,0,0-2.38-.39c-2.77,0-4.61,1.41-4.61,3.89,0,2.32,1.67,3.8,4.54,3.8a7.33,7.33,0,0,0,2.48-.39Z" transform="translate(-51.61 -105.25)"/><path class="4cff3063-6394-4fdc-9bf3-973edb3eef78" d="M204.13,251.15c0,2.51-2.17,3.6-4.22,3.6-2.29,0-4.06-1.35-4.06-3.49s1.85-3.6,4.2-3.6S204.13,249.07,204.13,251.15Zm-6.73.07a2.58,2.58,0,1,0,5.15,0,2.58,2.58,0,1,0-5.15,0Z" transform="translate(-51.61 -105.25)"/><path class="4cff3063-6394-4fdc-9bf3-973edb3eef78" d="M206.07,249.65c0-.7,0-1.28-.07-1.84h1.34l.08,1.1h.05a3.06,3.06,0,0,1,2.66-1.25,2.54,2.54,0,0,1,2.4,1.36h0a3,3,0,0,1,.95-.88,3.34,3.34,0,0,1,1.87-.48,2.66,2.66,0,0,1,2.78,2.94v4h-1.5v-3.84c0-1.3-.6-2.08-1.84-2.08a2,2,0,0,0-1.82,1.12,1.67,1.67,0,0,0-.12.62v4.18h-1.51v-4.06a1.67,1.67,0,0,0-1.77-1.86,2,2,0,0,0-1.9,1.23,1.35,1.35,0,0,0-.13.6v4.09h-1.5Z" transform="translate(-51.61 -105.25)"/><path class="4cff3063-6394-4fdc-9bf3-973edb3eef78" d="M220.66,249.65c0-.7,0-1.28-.07-1.84h1.35l.07,1.1h.05a3.07,3.07,0,0,1,2.66-1.25,2.53,2.53,0,0,1,2.4,1.36h0a3,3,0,0,1,.94-.88,3.39,3.39,0,0,1,1.87-.48,2.66,2.66,0,0,1,2.79,2.94v4h-1.51v-3.84c0-1.3-.59-2.08-1.84-2.08a2,2,0,0,0-1.82,1.12,1.67,1.67,0,0,0-.12.62v4.18H226v-4.06a1.68,1.68,0,0,0-1.77-1.86,2.06,2.06,0,0,0-1.91,1.23,1.34,1.34,0,0,0-.12.6v4.09h-1.51Z" transform="translate(-51.61 -105.25)"/><path class="4cff3063-6394-4fdc-9bf3-973edb3eef78" d="M236.11,251.43c0,1.66,1.37,2.35,2.91,2.35a6.75,6.75,0,0,0,2.35-.35l.26.88a8.3,8.3,0,0,1-2.82.42c-2.61,0-4.17-1.37-4.17-3.41a3.65,3.65,0,0,1,4-3.66,3.15,3.15,0,0,1,3.5,3.19,5.45,5.45,0,0,1-.05.58Zm4.52-.88a1.91,1.91,0,0,0-2.13-2,2.3,2.3,0,0,0-2.37,2Z" transform="translate(-51.61 -105.25)"/><path class="4cff3063-6394-4fdc-9bf3-973edb3eef78" d="M244,249.93c0-.8,0-1.49-.06-2.12h1.34l0,1.33h.07a2.52,2.52,0,0,1,2.35-1.48,1.94,1.94,0,0,1,.44,0v1.16a4,4,0,0,0-.53,0,2,2,0,0,0-2.06,1.59,2.4,2.4,0,0,0-.07.57v3.61H244Z" transform="translate(-51.61 -105.25)"/><path class="4cff3063-6394-4fdc-9bf3-973edb3eef78" d="M255.61,254.34a6.81,6.81,0,0,1-2.43.39c-2.56,0-4.22-1.38-4.22-3.46s1.79-3.6,4.55-3.6a6.49,6.49,0,0,1,2.14.35l-.35,1a4.29,4.29,0,0,0-1.79-.33c-1.94,0-3,1.15-3,2.57,0,1.57,1.26,2.53,2.94,2.53a5.44,5.44,0,0,0,1.89-.33Z" transform="translate(-51.61 -105.25)"/><path class="4cff3063-6394-4fdc-9bf3-973edb3eef78" d="M259.13,245.91c0,.42-.37.75-1,.75a.83.83,0,0,1-.93-.75c0-.44.4-.77,1-.77S259.13,245.47,259.13,245.91Zm-1.72,8.68v-6.78H259v6.78Z" transform="translate(-51.61 -105.25)"/><path class="4cff3063-6394-4fdc-9bf3-973edb3eef78" d="M266.2,254.59l-.12-.85H266a3.47,3.47,0,0,1-2.59,1c-1.71,0-2.59-1-2.59-1.95,0-1.64,1.82-2.54,5.1-2.52v-.14c0-.56-.2-1.57-1.93-1.57a5.17,5.17,0,0,0-2.21.5l-.34-.81a6.28,6.28,0,0,1,2.78-.6c2.59,0,3.22,1.41,3.22,2.77V253a7.3,7.3,0,0,0,.14,1.62Zm-.23-3.46c-1.68,0-3.59.21-3.59,1.53,0,.8.67,1.18,1.45,1.18a2.11,2.11,0,0,0,2.05-1.14.89.89,0,0,0,.09-.39Z" transform="translate(-51.61 -105.25)"/><path class="4cff3063-6394-4fdc-9bf3-973edb3eef78" d="M269.94,244.65h1.54v9.94h-1.54Z" transform="translate(-51.61 -105.25)"/></svg>